<svg xmlns="http://www.w3.org/2000/svg" viewBox="0 0 105.3 29.12"><defs><style>.cls-2{fill:#fff}</style></defs><g id="Layer_2" data-name="Layer 2"><g id="Layer_1-2" data-name="Layer 1"><path d="M102 24.76l-2.75 2.75a.28.28 0 0 1-.38 0l-.29-.28 2.47-2.47a.42.42 0 0 0 0-.48l-2.45-2.46.29-.29a.3.3 0 0 1 .38 0l2.73 2.75a.42.42 0 0 1 0 .48z" stroke="#fff" stroke-miterlimit="10" stroke-width=".45" fill="#fff"/><path class="cls-2" d="M63.35 8.27a1.9 1.9 0 0 1-1.46.6 1.73 1.73 0 0 1-1.81-1.66 1.69 1.69 0 0 1 0-.23 1.83 1.83 0 1 1 3.65-.27 1.22 1.22 0 0 1 0 .27 2 2 0 0 1-.42 1.29m2.16-4.75h-1.68a.1.1 0 0 0-.1.1v.29a3 3 0 0 0-1.95-.52 3.34 3.34 0 0 0-3.53 3.14 3.69 3.69 0 0 0 0 .47 3.75 3.75 0 0 0 1 2.72 3.44 3.44 0 0 0 2.49.95h.11a2.59 2.59 0 0 0 1.89-.58v.53a.1.1 0 0 0 .1.09h1.69a.09.09 0 0 0 .09-.09v-7a.09.09 0 0 0-.09-.1M58.66 1.8V.13a.12.12 0 0 0-.12-.13H52.4a.12.12 0 0 0-.12.13v10.43a.12.12 0 0 0 .12.13h1.66a.12.12 0 0 0 .12-.12V6.31a.12.12 0 0 1 .12-.12h3.1a.11.11 0 0 0 .12-.11V4.4a.13.13 0 0 0-.11-.13H54.3a.12.12 0 0 1-.12-.12V2a.11.11 0 0 1 .08-.14h4.29a.12.12 0 0 0 .12-.12M91.36 9.49a.09.09 0 0 0 0 .12 4 4 0 0 0 3.08 1.17 2.83 2.83 0 0 0 2.76-1.42 2.13 2.13 0 0 0 .19-.89c0-1.84-1.57-2.18-2.93-2.27-1.09-.07-1.09-.46-1.09-.58 0-.47.74-.51 1-.51a2 2 0 0 1 1.45.48.1.1 0 0 0 .14 0L97 4.45a.08.08 0 0 0 0-.12 3.62 3.62 0 0 0-2.56-.85A3.83 3.83 0 0 0 92.5 4a2 2 0 0 0-1 1.68c0 1.27 1 2.05 2.84 2.19 1 .06 1.17.36 1.17.63s-.51.5-1 .5a3.09 3.09 0 0 1-2.08-.81.11.11 0 0 0-.14 0zM70.43 3.45c1.75 0 2.92 1.36 2.92 3.39v3.8a.1.1 0 0 1-.1.09h-1.71a.09.09 0 0 1-.09-.09v-3.8a1.44 1.44 0 0 0-1.25-1.61H70a1.59 1.59 0 0 0-1.51 1.59v3.78a.11.11 0 0 1-.09.1h-1.68a.1.1 0 0 1-.09-.1V3.65a.09.09 0 0 1 .08-.11h1.65a.11.11 0 0 1 .1.11v.61a2.89 2.89 0 0 1 2-.81M100.2.6v3.8a2.16 2.16 0 0 1 1-.8 3.26 3.26 0 0 1 1.15-.22 3.53 3.53 0 0 1 1.16.19 2.22 2.22 0 0 1 1 .58 2.72 2.72 0 0 1 .58 1.07 5 5 0 0 1 .21 1.63v3.8a.09.09 0 0 1-.09.09h-1.9a.1.1 0 0 1-.1-.09v-3.8a1.66 1.66 0 0 0-.41-1.15 1.24 1.24 0 0 0-1-.41 1.62 1.62 0 0 0-1.14.44 1.73 1.73 0 0 0-.47 1.33v3.59a.1.1 0 0 1-.1.09h-1.9a.09.09 0 0 1-.09-.09V.6a.1.1 0 0 1 .09-.1h1.9a.1.1 0 0 1 .11.1M82 8.05a.09.09 0 0 0-.12 0 5.85 5.85 0 0 1-.71.35 3.28 3.28 0 0 1-.68.19 3.48 3.48 0 0 1-.64.07 3.69 3.69 0 0 1-1.51-.29 2.72 2.72 0 0 1-1-.78 2.87 2.87 0 0 1-.54-1 3.87 3.87 0 0 1 0-2.27 3.17 3.17 0 0 1 .56-1.06 2.86 2.86 0 0 1 1-.78 3.16 3.16 0 0 1 1.49-.3 3.68 3.68 0 0 1 1.15.17 2.41 2.41 0 0 1 .77.38.09.09 0 0 0 .13 0L83 1.24a.12.12 0 0 0 0-.14A5.22 5.22 0 0 0 79.81 0a5.73 5.73 0 0 0-2.45.48 4.89 4.89 0 0 0-1.71 1.24 5 5 0 0 0-1 1.74 6.25 6.25 0 0 0-.32 2 6.24 6.24 0 0 0 .3 2 4.79 4.79 0 0 0 .95 1.69 4.72 4.72 0 0 0 1.69 1.17 7 7 0 0 0 4.65.07 4.42 4.42 0 0 0 1.12-.58.1.1 0 0 0 0-.14zM88.24 8.27a1.89 1.89 0 0 1-1.43.6A1.73 1.73 0 0 1 85 7.21 1.69 1.69 0 0 1 85 7a1.82 1.82 0 1 1 3.64 0 2 2 0 0 1-.41 1.29m2.17-4.77h-1.69a.09.09 0 0 0-.1.1v.29a3 3 0 0 0-1.94-.52 3.34 3.34 0 0 0-3.53 3.14 2.46 2.46 0 0 0 0 .47 3.78 3.78 0 0 0 .94 2.72 3.48 3.48 0 0 0 2.5.95h.1a2.56 2.56 0 0 0 1.9-.58v.53a.1.1 0 0 0 .1.09h1.67a.09.09 0 0 0 .09-.09v-7a.09.09 0 0 0-.09-.1M37.82 10h9.49V3.87h-9.49zm9.84.74H37.45a.38.38 0 0 1-.37-.37V3.5a.37.37 0 0 1 .37-.37h10.21a.37.37 0 0 1 .37.35v6.86a.38.38 0 0 1-.37.37"/><path class="cls-2" d="M35.89 9.08a.29.29 0 0 1-.22-.08.35.35 0 0 1-.14-.25l-.84-6.85a.36.36 0 0 1 .3-.41L45.15 0a.4.4 0 0 1 .28.08.32.32 0 0 1 .14.24L46 3.56l-.73.09L44.89.8l-9.44 1.4.76 6.1 1.18-.18.11.73-1.5.23h-.06"/><path class="cls-2" d="M43.45 5.92a.61.61 0 0 0-.12-.16.77.77 0 0 0-.21-.14 1.19 1.19 0 0 0-.26-.11h-.6a.72.72 0 0 0-.43.24.57.57 0 0 0-.07.22.37.37 0 0 0 .07.2.5.5 0 0 0 .17.13l.27.07h.3c.21 0 .41.06.62.1a2.83 2.83 0 0 1 .55.21 1.35 1.35 0 0 1 .4.39 1.31 1.31 0 0 1 .15.61 1.15 1.15 0 0 1-.34.86 1.6 1.6 0 0 1-.95.38v.57h-.76V9a2.08 2.08 0 0 1-.48-.11 1.74 1.74 0 0 1-.76-.55 1.41 1.41 0 0 1-.23-.34l.67-.36a1.14 1.14 0 0 0 .18.25 1 1 0 0 0 .27.19 1.24 1.24 0 0 0 .32.12.8.8 0 0 0 .34 0h.35a1 1 0 0 0 .29-.07.46.46 0 0 0 .18-.13.36.36 0 0 0 .06-.25.35.35 0 0 0-.07-.23.43.43 0 0 0-.2-.15 1.15 1.15 0 0 0-.25-.12h-.34c-.2 0-.41 0-.61-.09a1.42 1.42 0 0 1-.52-.19 1.13 1.13 0 0 1-.44-.42 1.31 1.31 0 0 1-.12-.55 1 1 0 0 1 .12-.51 1 1 0 0 1 .29-.35 1.13 1.13 0 0 1 .42-.22 2 2 0 0 1 .49-.11v-.45h.73v.45a2.33 2.33 0 0 1 .36.08 1.3 1.3 0 0 1 .32.14 1.55 1.55 0 0 1 .27.24 1.5 1.5 0 0 1 .23.33zM7.9 1.94H2.2v2.29h5.23V6.1H2.2v2.77h6v1.93H0V0h7.9zM12.9 6a3.09 3.09 0 0 0 .84-.19.62.62 0 0 0 .45-.59.7.7 0 0 0-.35-.67 2.11 2.11 0 0 0-1-.19 1.31 1.31 0 0 0-1.06.37 1.48 1.48 0 0 0-.3.73h-2a3.08 3.08 0 0 1 .59-1.72 3.42 3.42 0 0 1 2.83-1.09 5 5 0 0 1 2.33.52 2 2 0 0 1 1 2V9.7a1.06 1.06 0 0 0 .12.55.79.79 0 0 0 .31.25v.3h-2.23a3.14 3.14 0 0 1-.13-.45q0-.21-.06-.48a4.31 4.31 0 0 1-1 .79 3 3 0 0 1-1.53.39 2.63 2.63 0 0 1-1.79-.62 2.16 2.16 0 0 1-.71-1.75 2.25 2.25 0 0 1 1.14-2.12A5.22 5.22 0 0 1 12.19 6zm1.28 1a2.58 2.58 0 0 1-.41.2 3 3 0 0 1-.56.14l-.47.09a3.05 3.05 0 0 0-1 .29 1 1 0 0 0-.49.88.92.92 0 0 0 .3.77 1.14 1.14 0 0 0 .73.24 2.12 2.12 0 0 0 1.26-.4 1.69 1.69 0 0 0 .6-1.44zM22.5 2.65h.18v2.14h-.6a1.72 1.72 0 0 0-1.69.82A3.16 3.16 0 0 0 20.15 7v3.8h-2.1v-8h2v1.43a4.1 4.1 0 0 1 .84-1.09 2.28 2.28 0 0 1 1.52-.49zM30.32 3.29a2.65 2.65 0 0 1 .78 2.15v5.36H29V6a2.28 2.28 0 0 0-.17-1 1.16 1.16 0 0 0-1.16-.61 1.43 1.43 0 0 0-1.44.9 3 3 0 0 0-.23 1.2v4.31h-2.09v-8h2V4a3.5 3.5 0 0 1 .76-.88 2.6 2.6 0 0 1 1.62-.48 3 3 0 0 1 2.03.65zM9 21.52a2.68 2.68 0 0 1-.23-1 2.34 2.34 0 0 1 .7-1.73 2.6 2.6 0 0 1 1.88-.68 2.32 2.32 0 0 1 1.74.64 2.11 2.11 0 0 1 .62 1.52A2.74 2.74 0 0 1 13 22a6.34 6.34 0 0 1-1.27 1l1.95 2.35c.13-.39.22-.68.27-.88a7.85 7.85 0 0 0 .15-.8h1.25a7.79 7.79 0 0 1-.49 2c-.25.63-.37.89-.37.76l1.9 2.32h-1.67l-1-1.23a4.9 4.9 0 0 1-1.09.95 3.68 3.68 0 0 1-2 .53 3 3 0 0 1-2.43-.9 3.11 3.11 0 0 1-.76-2 3 3 0 0 1 .74-2 8.19 8.19 0 0 1 1.68-1.24A5.91 5.91 0 0 1 9 21.52zm3.16 6a2.9 2.9 0 0 0 .9-.83l-2.42-3a7.89 7.89 0 0 0-1.34 1.05 2 2 0 0 0-.48 1.34 1.54 1.54 0 0 0 .63 1.32 2.21 2.21 0 0 0 1.32.46 2.49 2.49 0 0 0 1.34-.34zM12 21.44a1.68 1.68 0 0 0 .43-1.1 1.17 1.17 0 0 0-.32-.82 1.06 1.06 0 0 0-.84-.34 1.18 1.18 0 0 0-1.12.54 1.22 1.22 0 0 0-.16.6 1.61 1.61 0 0 0 .25.86 7.51 7.51 0 0 0 .81 1.05 5.3 5.3 0 0 0 .95-.79zM23 25.34a3 3 0 0 0 .41 1.48 2.72 2.72 0 0 0 2.46 1.07 4.09 4.09 0 0 0 1.43-.24A1.64 1.64 0 0 0 28.59 26a1.44 1.44 0 0 0-.53-1.25 5.35 5.35 0 0 0-1.69-.63l-1.37-.3a6.3 6.3 0 0 1-2-.71 2.27 2.27 0 0 1-1-2 3.14 3.14 0 0 1 1-2.38 3.88 3.88 0 0 1 2.76-.92 4.69 4.69 0 0 1 2.79.81 3 3 0 0 1 1.15 2.61h-1.38a2.89 2.89 0 0 0-.44-1.33 2.57 2.57 0 0 0-2.17-.84 2.43 2.43 0 0 0-1.77.54 1.74 1.74 0 0 0-.54 1.26A1.24 1.24 0 0 0 24 22a9 9 0 0 0 1.89.58l1.46.34a4.56 4.56 0 0 1 1.62.68 2.59 2.59 0 0 1 1 2.19 2.75 2.75 0 0 1-1.26 2.55 5.56 5.56 0 0 1-2.94.77 4.31 4.31 0 0 1-3.06-1 3.47 3.47 0 0 1-1.08-2.75zM36.08 24.07a.71.71 0 0 0 .6-.38 1.16 1.16 0 0 0 .09-.51 1.07 1.07 0 0 0-.48-1 2.54 2.54 0 0 0-1.36-.3 1.74 1.74 0 0 0-1.46.55 1.91 1.91 0 0 0-.32.92h-1.22a2.26 2.26 0 0 1 .93-2 3.86 3.86 0 0 1 2.1-.56 4.27 4.27 0 0 1 2.24.52 1.79 1.79 0 0 1 .85 1.69v4.51a.58.58 0 0 0 .09.33c0 .08.17.12.35.12H38.92v1a4.12 4.12 0 0 1-.47.11L38 29a1.07 1.07 0 0 1-1-.48 1.9 1.9 0 0 1-.23-.73 3.29 3.29 0 0 1-1.15.92 3.56 3.56 0 0 1-1.66.39 2.43 2.43 0 0 1-1.78-.67 2.19 2.19 0 0 1-.69-1.65 2.09 2.09 0 0 1 .68-1.68 3.18 3.18 0 0 1 1.83-.77zm-2.77 3.55a1.55 1.55 0 0 0 1 .33 3 3 0 0 0 1.35-.32 1.82 1.82 0 0 0 1.1-1.75v-1.06a2.1 2.1 0 0 1-.62.26 5.24 5.24 0 0 1-.75.15l-.79.1a2.93 2.93 0 0 0-1.08.3 1.17 1.17 0 0 0-.61 1.09 1.08 1.08 0 0 0 .4.9zM40.85 21l2.09 6.38L45.12 21h1.44l-3 7.83h-1.4L39.33 21zM52.53 21.19a3 3 0 0 1 1.18 1 3.48 3.48 0 0 1 .52 1.38 8.93 8.93 0 0 1 .12 1.73h-5.69a3.44 3.44 0 0 0 .55 1.92 1.87 1.87 0 0 0 1.62.72 2.06 2.06 0 0 0 1.63-.69 2.37 2.37 0 0 0 .49-.91h1.29a2.93 2.93 0 0 1-.34 1 3.29 3.29 0 0 1-.65.86 2.93 2.93 0 0 1-1.47.79 4.29 4.29 0 0 1-1.06.12A3.28 3.28 0 0 1 48.25 28a4.18 4.18 0 0 1-1-3 4.48 4.48 0 0 1 1-3.06 3.34 3.34 0 0 1 2.66-1.18 3.57 3.57 0 0 1 1.62.43zm.47 3.07a3.56 3.56 0 0 0-.37-1.36 1.89 1.89 0 0 0-1.79-.9 2 2 0 0 0-1.51.65 2.5 2.5 0 0 0-.65 1.66zM60.31 18.07h2.09l3.08 9.07 3.07-9.07h2.07V28.8h-1.39v-6.33-1.09-1.63l-3.04 9.05h-1.44l-3.09-9v9h-1.35zM78.31 21.76a4 4 0 0 1 1 3 5.14 5.14 0 0 1-.92 3.13 3.28 3.28 0 0 1-2.83 1.23A3.19 3.19 0 0 1 73.05 28a4.33 4.33 0 0 1-.94-2.93 4.69 4.69 0 0 1 1-3.14 3.32 3.32 0 0 1 2.67-1.17 3.48 3.48 0 0 1 2.53 1zM77.5 27a5 5 0 0 0 .48-2.2 3.94 3.94 0 0 0-.35-1.8 2 2 0 0 0-1.89-1.08 1.85 1.85 0 0 0-1.74.92 4.3 4.3 0 0 0-.54 2.16 3.76 3.76 0 0 0 .54 2.12 1.92 1.92 0 0 0 1.72.83A1.81 1.81 0 0 0 77.5 27zM81 21h1.25v1.36a2.79 2.79 0 0 1 .75-1 2 2 0 0 1 1.38-.57h.43v1.38h-.43a1.87 1.87 0 0 0-1.53.64 2.2 2.2 0 0 0-.53 1.47v4.5H81zM90.78 21.19a3 3 0 0 1 1.19 1 3.63 3.63 0 0 1 .52 1.38 8.93 8.93 0 0 1 .12 1.73h-5.7a3.44 3.44 0 0 0 .56 1.92 1.87 1.87 0 0 0 1.62.72 2.07 2.07 0 0 0 1.63-.69 2.22 2.22 0 0 0 .48-.91h1.3a2.93 2.93 0 0 1-.34 1 3.52 3.52 0 0 1-.65.86A2.93 2.93 0 0 1 90 29a4.32 4.32 0 0 1-1.07.12A3.28 3.28 0 0 1 86.51 28a4.18 4.18 0 0 1-1-3 4.49 4.49 0 0 1 1-3.06 3.33 3.33 0 0 1 2.66-1.18 3.5 3.5 0 0 1 1.61.43zm.47 3.07a3.24 3.24 0 0 0-.37-1.36 1.86 1.86 0 0 0-1.78-.9 2 2 0 0 0-1.51.65 2.5 2.5 0 0 0-.65 1.66z"/></g></g></svg>