<svg xmlns="http://www.w3.org/2000/svg" viewBox="0 0 313.18 95"><defs><style>.cls-1{fill:#fff}.cls-2{fill:none}.cls-3{fill:#da8827}</style></defs><g id="Layer_2" data-name="Layer 2"><g id="Layer_1-2" data-name="Layer 1"><path class="cls-1" d="M124.32 83c2.07 0 3.46 1.6 3.46 4v4.42a.11.11 0 0 1-.11.12h-2a.11.11 0 0 1-.11-.12V87a1.7 1.7 0 0 0-1.71-1.91A1.86 1.86 0 0 0 122 86.9v4.46a.11.11 0 0 1-.11.12h-2a.12.12 0 0 1-.12-.12v-8.17a.12.12 0 0 1 .12-.12h1.94a.11.11 0 0 1 .11.12v.73a3.46 3.46 0 0 1 2.38-1m30.87 7a.12.12 0 0 0 0 .15 4.72 4.72 0 0 0 3.64 1.37 3.38 3.38 0 0 0 3.29-1.67 2.67 2.67 0 0 0 .22-1c0-2.15-1.86-2.55-3.48-2.65-1.29-.09-1.29-.54-1.29-.69 0-.54.87-.6 1.25-.6a2.44 2.44 0 0 1 1.72.57.11.11 0 0 0 .16 0l1.15-1.33a.12.12 0 0 0 0-.17 4.32 4.32 0 0 0-3-1 4.51 4.51 0 0 0-2.26.57 2.26 2.26 0 0 0-1.19 2c0 1.49 1.2 2.41 3.37 2.57 1.23.07 1.39.43 1.39.73 0 .45-.59.69-1.18.69h-.05a3.74 3.74 0 0 1-2.47-1 .12.12 0 0 0-.17 0zm-20.35-1.38a2.27 2.27 0 0 0 .49-1.51 2.17 2.17 0 1 0-2.19 2.23 2.28 2.28 0 0 0 1.7-.72m.43-5.44a.11.11 0 0 1 .12-.11h2a.11.11 0 0 1 .12.11v8.19a.12.12 0 0 1-.12.12h-2a.12.12 0 0 1-.12-.12v-.61a3.11 3.11 0 0 1-2.27.67h-.12a4.1 4.1 0 0 1-3-1.1 4.35 4.35 0 0 1-1.17-3.2 3.94 3.94 0 0 1 4.17-4.23 3.55 3.55 0 0 1 2.31.62zM110.33 81v-2a.15.15 0 0 0-.15-.14h-7.29a.15.15 0 0 0-.15.14v12.33a.15.15 0 0 0 .15.15h2a.15.15 0 0 0 .14-.15v-5a.14.14 0 0 1 .14-.14h3.68A.14.14 0 0 0 109 86v-2a.15.15 0 0 0-.14-.15h-3.68a.14.14 0 0 1-.14-.14v-2.4a.14.14 0 0 1 .14-.14h5a.15.15 0 0 0 .15-.14m42.92 7.82a.11.11 0 0 0-.15 0 2.26 2.26 0 0 1-1.38.51 2.15 2.15 0 0 1 0-4.3 2.25 2.25 0 0 1 1.38.5.1.1 0 0 0 .15 0l1.3-1.37a.11.11 0 0 0 0-.16 3.86 3.86 0 0 0-2.86-1.13 4.32 4.32 0 1 0 0 8.63 3.86 3.86 0 0 0 2.86-1.13.11.11 0 0 0 0-.16zm-10.48 2.63a.12.12 0 0 0 .12-.12v-1.83a.12.12 0 0 0-.12-.12h-1c-.59 0-.85-.32-.85-.94v-3.13h1.84a.11.11 0 0 0 .12-.11v-2a.11.11 0 0 0-.12-.11h-1.83V81.3a.11.11 0 0 0-.11-.12h-2a.11.11 0 0 0-.11.12v7.17a2.71 2.71 0 0 0 3 3h1.12zm-26.88-2.87a2.27 2.27 0 0 0 .49-1.51 2.17 2.17 0 1 0-2.2 2.23 2.29 2.29 0 0 0 1.71-.72m.43-5.44a.11.11 0 0 1 .12-.11h2a.11.11 0 0 1 .12.11v8.19a.12.12 0 0 1-.12.12h-2a.12.12 0 0 1-.12-.12v-.61a3.11 3.11 0 0 1-2.27.67h-.12a4.1 4.1 0 0 1-3-1.1 4.35 4.35 0 0 1-1.17-3.2A3.94 3.94 0 0 1 114 82.9a3.55 3.55 0 0 1 2.31.62zm27.79 8.31h2a.11.11 0 0 0 .11-.12v-8.19a.11.11 0 0 0-.11-.11h-2a.11.11 0 0 0-.11.11v8.19a.11.11 0 0 0 .11.12m2.28-10.91a1.25 1.25 0 0 0-2.5 0 1.25 1.25 0 0 0 2.5 0M99.33 76.55l-2.1 3.26a.16.16 0 0 1-.2.07c-4.85-2.44-10.45 2.05-15.39 1a.21.21 0 0 1-.11-.08l-3.18-4.9a.22.22 0 0 1 .22-.34 29.43 29.43 0 0 0 3.73.62c7.5.4 11.56-4.1 17 .16a.17.17 0 0 1 .03.21zm-6.12 9.36a.08.08 0 0 0 .11 0l2.55-3.95a.09.09 0 0 0-.05-.13c-3.68-1.3-7.12 1.17-12.38 1.27a.23.23 0 0 0-.18.34l5.67 8.75a.14.14 0 0 0 .26-.08L88 86.57a.09.09 0 0 1 .07-.11c.44-.16 3.65-1.26 5.17-.55zM174.65 91.47h-8V80.68h7.92v1.68h-6.2v2.91h6v1.61h-6v2.89h6.24zM181.16 83.87h1.93l-2.56 3.68 2.73 3.82h-1.92l-1.86-2.76-1.87 2.76h-1.91l2.73-3.82-2.56-3.68h1.91l1.7 2.71zM184.52 95V83.87H186l.09 1.23a2.86 2.86 0 0 1 1.17-1 3.47 3.47 0 0 1 1.51-.34 4 4 0 0 1 1.56.3 3.58 3.58 0 0 1 2 2.08 4.3 4.3 0 0 1 .28 1.58 4.65 4.65 0 0 1-.27 1.61 3.79 3.79 0 0 1-.76 1.26 3.44 3.44 0 0 1-1.21.83 4.3 4.3 0 0 1-1.6.29 4.59 4.59 0 0 1-.73-.06 2.85 2.85 0 0 1-.74-.22 2.76 2.76 0 0 1-.68-.4 2 2 0 0 1-.53-.6V95zm4.12-4.87a2.46 2.46 0 0 0 1.72-.69 2.27 2.27 0 0 0 .5-.78 2.55 2.55 0 0 0 .18-1 2.43 2.43 0 0 0-.65-1.75 2.3 2.3 0 0 0-1.75-.67 2.62 2.62 0 0 0-1 .18 2.34 2.34 0 0 0-.75.52 2.42 2.42 0 0 0-.47.77 2.47 2.47 0 0 0-.17 1 2.67 2.67 0 0 0 .17.95 2.43 2.43 0 0 0 .5.78 2.37 2.37 0 0 0 .75.53 2.58 2.58 0 0 0 .97.16zM195.51 88.29a2 2 0 0 0 .76 1.4 2.73 2.73 0 0 0 1.72.52 3.87 3.87 0 0 0 1.22-.21 2.23 2.23 0 0 0 1-.61l1 1a3.12 3.12 0 0 1-.68.57 4.51 4.51 0 0 1-1.69.65 5.67 5.67 0 0 1-.9.08 4.71 4.71 0 0 1-1.69-.29 3.55 3.55 0 0 1-1.29-.81 3.59 3.59 0 0 1-.83-1.27 4.63 4.63 0 0 1-.29-1.66 4.36 4.36 0 0 1 .29-1.59 3.63 3.63 0 0 1 2.1-2.07 4.45 4.45 0 0 1 1.62-.29 4.7 4.7 0 0 1 1.68.29 3.23 3.23 0 0 1 1.26.85 3.41 3.41 0 0 1 .75 1.44 5.58 5.58 0 0 1 .14 2zm4.64-1.29a1.85 1.85 0 0 0-.68-1.38 2.54 2.54 0 0 0-1.57-.45 2.61 2.61 0 0 0-1.53.45 2.13 2.13 0 0 0-.83 1.38zM204.77 83.87l.11 1a2.05 2.05 0 0 1 1-1 3.7 3.7 0 0 1 1.22-.22 3 3 0 0 1 1 .18 2.37 2.37 0 0 1 .83.47l-.73 1.39a2.13 2.13 0 0 0-.59-.35 2 2 0 0 0-.75-.12 2.45 2.45 0 0 0-.78.13 1.85 1.85 0 0 0-.65.39 1.8 1.8 0 0 0-.45.65 2.34 2.34 0 0 0-.17.91v4.12h-1.59v-7.6zM209.89 81.64a.87.87 0 0 1 .31-.74 1.09 1.09 0 0 1 .68-.24 1.11 1.11 0 0 1 .68.24.89.89 0 0 1 .3.74.92.92 0 0 1-.3.74 1.11 1.11 0 0 1-.68.24 1.09 1.09 0 0 1-.68-.24.9.9 0 0 1-.31-.74zm1.77 2.2v7.63h-1.58v-7.63zM215 88.29a2 2 0 0 0 .76 1.4 2.73 2.73 0 0 0 1.72.52 3.87 3.87 0 0 0 1.22-.21 2.23 2.23 0 0 0 1-.61l1 1a3.12 3.12 0 0 1-.68.57 4.4 4.4 0 0 1-.81.41 4.32 4.32 0 0 1-.89.24 5.45 5.45 0 0 1-.89.08 4.81 4.81 0 0 1-1.7-.29 3.57 3.57 0 0 1-2.11-2.08 4.63 4.63 0 0 1-.29-1.66 4.36 4.36 0 0 1 .29-1.59 3.63 3.63 0 0 1 2.11-2.07 4.41 4.41 0 0 1 1.62-.29A4.6 4.6 0 0 1 219 84a3.27 3.27 0 0 1 1.27.85 3.53 3.53 0 0 1 .75 1.44 5.38 5.38 0 0 1 .13 2zm4.65-1.29a1.85 1.85 0 0 0-.68-1.38 2.54 2.54 0 0 0-1.57-.45 2.61 2.61 0 0 0-1.53.45A2.13 2.13 0 0 0 215 87zM228.56 91.47V87.4a2.37 2.37 0 0 0-.53-1.6 2.14 2.14 0 0 0-2.39-.43 2 2 0 0 0-.67.5 2.09 2.09 0 0 0-.43.74 2.37 2.37 0 0 0-.16.88v4h-1.59v-7.63h1.45l.1 1.11a3.24 3.24 0 0 1 2.55-1.25 3.37 3.37 0 0 1 1.29.24 2.7 2.7 0 0 1 1 .7 3.23 3.23 0 0 1 .7 1.15 4.48 4.48 0 0 1 .25 1.58v4.08zM238.62 90.5a4 4 0 0 1-1.34.92 4.26 4.26 0 0 1-1.54.27 4.71 4.71 0 0 1-1.55-.26 3.73 3.73 0 0 1-1.28-.75 3.62 3.62 0 0 1-.86-1.25 4.86 4.86 0 0 1 0-3.47 3.53 3.53 0 0 1 .86-1.25 3.78 3.78 0 0 1 1.27-.75 4.73 4.73 0 0 1 1.56-.26 3.67 3.67 0 0 1 2.75 1.13l-1 1a2.45 2.45 0 0 0-.82-.49 2.85 2.85 0 0 0-.9-.16 2.56 2.56 0 0 0-1 .18 2.27 2.27 0 0 0-.78.5 2.29 2.29 0 0 0-.51.78 2.54 2.54 0 0 0-.19 1 2.86 2.86 0 0 0 .19 1.06 2.35 2.35 0 0 0 .53.77 2.11 2.11 0 0 0 .77.47 2.83 2.83 0 0 0 .93.15 3 3 0 0 0 1-.16 2.13 2.13 0 0 0 .83-.54zM241 88.29a2 2 0 0 0 .77 1.4 2.71 2.71 0 0 0 1.72.52 3.81 3.81 0 0 0 1.21-.21 2.23 2.23 0 0 0 1-.61l1 1a2.9 2.9 0 0 1-.68.57 4 4 0 0 1-.8.41 4.5 4.5 0 0 1-.89.24 5.65 5.65 0 0 1-.89.08 4.77 4.77 0 0 1-1.7-.29 3.72 3.72 0 0 1-1.29-.81 3.57 3.57 0 0 1-.82-1.27 4.42 4.42 0 0 1-.3-1.66 4.17 4.17 0 0 1 .3-1.59 3.58 3.58 0 0 1 2.13-2.07 4.46 4.46 0 0 1 1.63-.29 4.68 4.68 0 0 1 1.67.29 3.16 3.16 0 0 1 1.26.85 3.42 3.42 0 0 1 .76 1.44 5.6 5.6 0 0 1 .13 2zm4.68-1.29a1.84 1.84 0 0 0-.67-1.38 2.89 2.89 0 0 0-3.1 0 2.18 2.18 0 0 0-.84 1.38zM74.63 89.17h-5.84l-1 2.27h-1.85l4.84-10.79h1.88l4.84 10.79h-1.84zm-2.91-6.7l-2.28 5.13H74zM34.9 31.05h-3l-.41-2.65a4.16 4.16 0 0 0-1.48-.93 6.1 6.1 0 0 0-2.11-.34A4.7 4.7 0 0 0 24 29a8 8 0 0 0-1.39 4.91v.7A8.08 8.08 0 0 0 24 39.54a4.55 4.55 0 0 0 3.92 1.9A6.64 6.64 0 0 0 30 41.1a3.61 3.61 0 0 0 1.51-.93l.41-2.65h3v3.93a8.52 8.52 0 0 1-3.06 2.22 10.18 10.18 0 0 1-4.17.82 8.5 8.5 0 0 1-6.55-2.77 10.06 10.06 0 0 1-2.55-7.1V34a10.13 10.13 0 0 1 2.54-7.1 8.46 8.46 0 0 1 6.56-2.79 10 10 0 0 1 4.16.84 8.9 8.9 0 0 1 3.07 2.22zM54.88 34.43a10.56 10.56 0 0 1-2.5 7.21 8.26 8.26 0 0 1-6.53 2.85 8.2 8.2 0 0 1-6.5-2.85 10.59 10.59 0 0 1-2.47-7.21v-.3a10.66 10.66 0 0 1 2.46-7.2 8.17 8.17 0 0 1 6.5-2.87 8.24 8.24 0 0 1 6.53 2.87 10.55 10.55 0 0 1 2.51 7.2zm-4-.33a8.89 8.89 0 0 0-1.28-5 4.26 4.26 0 0 0-3.79-1.93 4.16 4.16 0 0 0-3.75 1.91 9.15 9.15 0 0 0-1.23 5v.33a9.06 9.06 0 0 0 1.25 5 4.15 4.15 0 0 0 3.74 1.92 4.25 4.25 0 0 0 3.79-1.92 9 9 0 0 0 1.27-5zM56.47 44.21v-2.39l2.12-.41V27.16l-2.12-.41v-2.4h8.23v2.4l-2.13.41v14h5.6l.19-2.49h3v5.55zM72.84 44.21v-2.39l2.16-.41V27.16l-2.11-.41v-2.4h8.22v2.4l-2.13.41v14h5.61l.19-2.49h3v5.55zM102 35.48h-6.7v5.67h6.41l.17-2.37h3v5.43H89.2v-2.39l2.12-.41V27.16l-2.12-.41v-2.4h15.68v5.44h-3l-.18-2.37h-6.4v5h6.7zM123.5 42a9 9 0 0 1-2.82 1.72 12.2 12.2 0 0 1-4.69.77 8.57 8.57 0 0 1-6.55-2.69 9.84 9.84 0 0 1-2.52-7v-.69a10.48 10.48 0 0 1 2.49-7.25 8.28 8.28 0 0 1 6.49-2.8 11.62 11.62 0 0 1 4.26.75 9.1 9.1 0 0 1 3.22 2v4h-2.95l-.56-2.65a4.06 4.06 0 0 0-1.44-.75 6.73 6.73 0 0 0-2.05-.28 4.77 4.77 0 0 0-4 1.92 8.21 8.21 0 0 0-1.45 5v.71a7.65 7.65 0 0 0 1.42 4.83 4.91 4.91 0 0 0 4.09 1.81 7.43 7.43 0 0 0 2-.21 4.15 4.15 0 0 0 1.16-.47v-3.33l-2.83-.22v-2.8h6.83zM138.31 35.48h-6.72v5.67H138l.17-2.37h3v5.43h-15.68v-2.39l2.11-.41V27.16l-2.11-.41v-2.4h15.68v5.44h-3l-.18-2.37h-6.35v5h6.72zM150.17 41.82l2.12-.41V27.16l-2.12-.41v-2.4H166v5.44h-3.06l-.17-2.37h-6.48v5.47h6.95V36h-6.95v5.45l2.13.41v2.39h-8.23zM185 34.43a10.55 10.55 0 0 1-2.49 7.21 8.88 8.88 0 0 1-13 0 10.59 10.59 0 0 1-2.51-7.21v-.3a10.62 10.62 0 0 1 2.47-7.2 8.15 8.15 0 0 1 6.53-2.87 8.28 8.28 0 0 1 6.54 2.87 10.54 10.54 0 0 1 2.5 7.2zm-4-.33a8.89 8.89 0 0 0-1.28-5 4.25 4.25 0 0 0-3.72-1.93 4.15 4.15 0 0 0-3.74 1.91 9.06 9.06 0 0 0-1.24 5v.33a9.14 9.14 0 0 0 1.25 5A4.16 4.16 0 0 0 176 41.4a4.24 4.24 0 0 0 3.79-1.92 9 9 0 0 0 1.27-5zM204.78 34.43a10.51 10.51 0 0 1-2.5 7.21 8.87 8.87 0 0 1-13 0 10.59 10.59 0 0 1-2.47-7.21v-.3a10.66 10.66 0 0 1 2.46-7.2 8.83 8.83 0 0 1 13 0 10.55 10.55 0 0 1 2.51 7.2zm-4-.33a8.89 8.89 0 0 0-1.28-5 4.26 4.26 0 0 0-3.79-1.93 4.16 4.16 0 0 0-3.71 1.91 9.15 9.15 0 0 0-1.23 5v.33a9.06 9.06 0 0 0 1.25 5 4.16 4.16 0 0 0 3.74 1.92 4.25 4.25 0 0 0 3.79-1.92 9 9 0 0 0 1.27-5zM223.49 24.35v5.29h-3.06l-.16-2.22h-3.66v14l2.13.41v2.39h-8.24v-2.4l2.13-.41v-14H209l-.16 2.22h-3v-5.28zM233.61 24.35a9.5 9.5 0 0 1 5.47 1.36 4.66 4.66 0 0 1 2 4.08 4.27 4.27 0 0 1-.73 2.46 4.35 4.35 0 0 1-2.12 1.63 4.24 4.24 0 0 1 2.68 1.64 4.91 4.91 0 0 1 .89 2.9 5.16 5.16 0 0 1-1.88 4.32 8.49 8.49 0 0 1-5.33 1.47h-9.77v-2.39l2.12-.41V27.16l-2.12-.41v-2.4h8.83zm-2.73 8.32h2.86a4 4 0 0 0 2.46-.67 2.24 2.24 0 0 0 .86-1.9 2.4 2.4 0 0 0-.87-2 4.3 4.3 0 0 0-2.58-.65h-2.73zm0 2.75v5.73h3.67a3.68 3.68 0 0 0 2.41-.69 2.48 2.48 0 0 0 .83-2 3.16 3.16 0 0 0-.71-2.23 2.9 2.9 0 0 0-2.23-.77zM243 41.82l1.42-.21 6-17.26h4.08l6 17.26 1.42.21v2.39h-6.77v-2.39l1.38-.25-.87-2.72h-6.36l-.87 2.72 1.38.25v2.39H243zm7.2-5.91h4.56l-2.24-7h-.08zM263.31 44.21v-2.39l2.11-.41V27.16l-2.11-.41v-2.4h8.22v2.4l-2.13.41v14h5.6l.19-2.49h3v5.55zM279.67 44.21v-2.39l2.12-.41V27.16l-2.12-.41v-2.4h8.23v2.4l-2.13.41v14h5.6l.19-2.49h3.05v5.55zM126.36 54.59h-3l-.52-2.73a5.7 5.7 0 0 0-1.51-.57 9.06 9.06 0 0 0-2.12-.24 4.14 4.14 0 0 0-2.53.68 2.17 2.17 0 0 0-.89 1.78 1.93 1.93 0 0 0 .94 1.66 12.77 12.77 0 0 0 3.27 1.37 12.57 12.57 0 0 1 5 2.42 5 5 0 0 1 1.7 3.94 4.7 4.7 0 0 1-2 4 8.79 8.79 0 0 1-5.31 1.47 11.56 11.56 0 0 1-4.27-.75 8.91 8.91 0 0 1-3.17-2.07v-4.13H115l.42 2.83a4.86 4.86 0 0 0 1.63.81 7.79 7.79 0 0 0 2.3.32 3.9 3.9 0 0 0 2.48-.67 2.15 2.15 0 0 0 .86-1.79 2.32 2.32 0 0 0-.81-1.84 8.37 8.37 0 0 0-2.88-1.31 16.31 16.31 0 0 1-5.34-2.42 4.61 4.61 0 0 1-1.82-3.85 4.73 4.73 0 0 1 2-4A8.49 8.49 0 0 1 119 48a12 12 0 0 1 4.17.69 9.84 9.84 0 0 1 3.17 1.86zM145.69 48.25v5.29h-3.05l-.16-2.22h-3.66v14l2.13.41v2.39h-8.24v-2.4l2.13-.41v-14h-3.64l-.2 2.23h-3v-5.29zM164.76 58.33a10.51 10.51 0 0 1-2.5 7.21 8.87 8.87 0 0 1-13 0 10.59 10.59 0 0 1-2.47-7.21V58a10.62 10.62 0 0 1 2.47-7.2 8.15 8.15 0 0 1 6.46-2.8 8.28 8.28 0 0 1 6.54 2.87 10.59 10.59 0 0 1 2.5 7.2zm-4-.33a8.89 8.89 0 0 0-1.28-5 4.26 4.26 0 0 0-3.79-1.93A4.17 4.17 0 0 0 152 53a9.17 9.17 0 0 0-1.23 5v.33a9.14 9.14 0 0 0 1.23 5.05 4.16 4.16 0 0 0 3.74 1.92 4.24 4.24 0 0 0 3.79-1.92 9 9 0 0 0 1.27-5.05zM175.27 48.25a8.25 8.25 0 0 1 5.31 1.55 5.19 5.19 0 0 1 1.92 4.27 4.37 4.37 0 0 1-.8 2.61 5.7 5.7 0 0 1-2.36 1.78 4.36 4.36 0 0 1 2.53 1.73 5.47 5.47 0 0 1 .77 3v1a1.67 1.67 0 0 0 .26 1 1.17 1.17 0 0 0 .86.43l.49.07v2.4h-2.06a3.21 3.21 0 0 1-2.74-1 4.39 4.39 0 0 1-.8-2.72v-1.16a3.17 3.17 0 0 0-.77-2.27 2.94 2.94 0 0 0-2.17-.87h-3.26v5.24l2.13.41v2.39h-8.23v-2.39l2.12-.41V51.06l-2.12-.41v-2.4h8.92zM172.45 57h2.76a3.77 3.77 0 0 0 2.49-.71 2.54 2.54 0 0 0 .83-2 2.82 2.82 0 0 0-.82-2.13 3.34 3.34 0 0 0-2.44-.8h-2.82zM198.38 59.38h-6.73v5.67h6.41l.18-2.37h3v5.43h-15.68v-2.39l2.11-.41V51.06l-2.11-.41v-2.4h15.68v5.44h-3.06l-.18-2.37h-6.36v5h6.73zM283.18 47.35h-27.7c3.23 3 6.34 6.06 9.29 9.3A77.9 77.9 0 0 1 313.18 79a197.58 197.58 0 0 0-30-31.65zM0 79a77.9 77.9 0 0 1 48.41-22.35c3-3.24 6.06-6.34 9.29-9.3H30A197.58 197.58 0 0 0 0 79z"/><path class="cls-2" d="M150.7 9c.76 0 1.51-.07 2.26-.08-.75.02-1.5.08-2.26.08zM141.19 9.68c.75-.08 1.51-.14 2.26-.21-.75.07-1.51.13-2.26.21zM131.68 11c.75-.13 1.5-.27 2.26-.38-.76.12-1.51.26-2.26.38z"/><path class="cls-1" d="M153 3.5V1.1h-2.26v2.46zM172 4.07V1.66l-2.26-.16v2.41zM143.45 3.91V1.5l-2.26.16v2.41zM162.48 3.56V1.15h-2.27V3.5zM70.51 20.9h27.92a145.82 145.82 0 0 1 26-8.46V3.69A194.8 194.8 0 0 0 70.51 20.9zM188.75 3.69v8.75a145.82 145.82 0 0 1 26 8.46h27.92a194.8 194.8 0 0 0-53.92-17.21zM181.5 5.05V2.63l-2.26-.27v2.41zM133.94 4.77V2.36c-.76.08-1.51.18-2.26.27v2.42zM160.21 6.52v2.41c.76 0 1.51.05 2.27.08V6.6zM150.7 6.6V9c.76 0 1.51-.07 2.26-.08v-2.4zM131.68 8.61V11c.75-.13 1.5-.27 2.26-.38V8.23zM169.73 7.07v2.4c.75.07 1.51.13 2.26.21v-2.4c-.75-.08-1.51-.14-2.26-.21zM179.24 8.23v2.4c.76.11 1.51.25 2.26.38v-2.4zM141.19 7.28v2.4c.75-.08 1.51-.14 2.26-.21v-2.4c-.75.07-1.51.13-2.26.21z"/><path class="cls-1" d="M179.24 10.63c.76.11 1.51.25 2.26.38-.75-.13-1.5-.27-2.26-.38zM169.73 9.47c.75.07 1.51.13 2.26.21-.75-.08-1.51-.14-2.26-.21zM188.75 12.44a145.82 145.82 0 0 1 26 8.46 145.82 145.82 0 0 0-26-8.46z"/><path class="cls-3" d="M134.54 1.21v10.2c1.94-.29 4-.54 6.05-.77V.63c-1.95.16-3.98.37-6.05.58zM144.05.39v9.91c1.86-.15 3.85-.27 6-.37V.11c-2 .06-4.05.16-6 .28zM153.57 0v9.8h6V0h-6zM163.08.11v9.82c2.2.1 4.19.22 6 .37V.42c-1.92-.15-3.95-.25-6-.31zM172.59.63v10c2.08.23 4.11.48 6 .77V1.21c-2.02-.21-4.05-.42-6-.58zM182.1 1.62V12c1.94.34 3.93.73 6.05 1.19V2.49c-2-.32-4.03-.61-6.05-.87zM125 2.49v10.66c2.12-.46 4.11-.85 6.05-1.19V1.62c-1.99.26-4.05.55-6.05.87z"/></g></g></svg>